<?xml version="1.0" encoding="UTF-8"?>
<svg width="500" height="300" viewBox="0 0 500 300" xmlns="http://www.w3.org/2000/svg">
  <!-- Background -->
  <rect width="500" height="300" fill="#6C5CE7"/>
  <rect width="500" height="300" fill="#6C5CE7" opacity="0.7"/>
  
  <!-- Mobile phone frame -->
  <rect x="175" y="20" width="150" height="260" rx="15" fill="#FFFFFF"/>
  <rect x="185" y="40" width="130" height="210" rx="5" fill="#F1F2F6"/>
  
  <!-- Status bar -->
  <rect x="185" y="40" width="130" height="20" fill="#FAFAFA"/>
  <circle cx="195" cy="50" r="3" fill="#FF6B6B"/>
  <rect x="205" y="47" width="20" height="6" rx="2" fill="#A29BFE"/>
  <rect x="295" y="47" width="10" height="6" rx="2" fill="#A29BFE"/>
  
  <!-- Travel app UI -->
  <rect x="195" y="70" width="110" height="40" rx="5" fill="#FFFFFF"/>
  <rect x="205" y="80" width="60" height="8" rx="2" fill="#576574"/>
  <rect x="205" y="95" width="40" height="6" rx="2" fill="#8395A7"/>
  <circle cx="285" cy="90" r="12" fill="#FD79A8"/>
  <path d="M280,90 L285,95 L290,90" stroke="#FFFFFF" stroke-width="2" fill="none"/>
  
  <!-- Destination cards -->
  <rect x="195" y="120" width="110" height="70" rx="5" fill="#FFFFFF"/>
  <rect x="205" y="130" width="40" height="8" rx="2" fill="#576574"/>
  <rect x="205" y="145" width="90" height="35" rx="3" fill="#A3CB38"/>
  <circle cx="225" cy="162" r="10" fill="#FFFFFF" fill-opacity="0.3"/>
  
  <rect x="195" y="200" width="50" height="50" rx="5" fill="#FFFFFF"/>
  <rect x="255" y="200" width="50" height="50" rx="5" fill="#FFFFFF"/>
  <rect x="205" y="210" width="30" height="6" rx="2" fill="#576574"/>
  <rect x="205" y="222" width="20" height="5" rx="2" fill="#8395A7"/>
  <rect x="265" y="210" width="30" height="6" rx="2" fill="#576574"/>
  <rect x="265" y="222" width="20" height="5" rx="2" fill="#8395A7"/>
  
  <!-- Bottom navigation -->
  <rect x="185" y="260" width="130" height="30" fill="#FFFFFF"/>
  <circle cx="215" cy="275" r="5" fill="#6C5CE7"/>
  <circle cx="250" cy="275" r="5" fill="#CED6E0"/>
  <circle cx="285" cy="275" r="5" fill="#CED6E0"/>
  
  <!-- Decorative elements -->
  <circle cx="80" cy="80" r="30" fill="#FDA7DF" opacity="0.7"/>
  <circle cx="420" cy="180" r="40" fill="#A3CB38" opacity="0.5"/>
  <circle cx="50" cy="220" r="25" fill="#FD79A8" opacity="0.6"/>
  <circle cx="400" cy="60" r="20" fill="#FFFFFF" opacity="0.2"/>
</svg>