<?xml version="1.0" encoding="UTF-8"?>
<svg width="500" height="300" viewBox="0 0 500 300" xmlns="http://www.w3.org/2000/svg">
  <!-- Background -->
  <rect width="500" height="300" fill="#2C3E50"/>
  
  <!-- Dashboard sections -->
  <rect x="30" y="30" width="440" height="50" rx="5" fill="#34495E"/>
  <rect x="30" y="100" width="210" height="170" rx="5" fill="#34495E"/>
  <rect x="260" y="100" width="210" height="80" rx="5" fill="#34495E"/>
  <rect x="260" y="190" width="100" height="80" rx="5" fill="#34495E"/>
  <rect x="370" y="190" width="100" height="80" rx="5" fill="#34495E"/>
  
  <!-- Header content -->
  <circle cx="60" cy="55" r="10" fill="#3498DB"/>
  <rect x="80" y="45" width="100" height="20" rx="3" fill="#3498DB"/>
  <rect x="320" y="45" width="130" height="20" rx="3" fill="#2980B9"/>
  
  <!-- Chart in main panel -->
  <rect x="50" y="120" width="170" height="130" rx="3" fill="#2C3E50"/>
  <polyline points="60,220 90,180 120,200 150,160 180,190 210,140" stroke="#3498DB" stroke-width="3" fill="none"/>
  <polyline points="60,200 90,190 120,210 150,170 180,220 210,150" stroke="#E74C3C" stroke-width="3" fill="none"/>
  
  <!-- Info cards -->
  <rect x="270" y="110" width="190" height="60" rx="3" fill="#2C3E50"/>
  <circle cx="300" cy="140" r="15" fill="#27AE60"/>
  <rect x="330" y="130" width="100" height="10" rx="2" fill="#ECF0F1"/>
  <rect x="330" y="150" width="80" height="10" rx="2" fill="#BDC3C7"/>
  
  <circle cx="300" cy="230" r="15" fill="#E74C3C"/>
  <rect x="320" y="220" width="40" height="10" rx="2" fill="#ECF0F1"/>
  <rect x="320" y="240" width="40" height="10" rx="2" fill="#BDC3C7"/>
  
  <circle cx="410" cy="230" r="15" fill="#F1C40F"/>
  <rect x="430" y="220" width="30" height="10" rx="2" fill="#ECF0F1"/>
  <rect x="430" y="240" width="30" height="10" rx="2" fill="#BDC3C7"/>
</svg>